<?xml version="1.0" standalone="no"?>
<!DOCTYPE svg PUBLIC "-//W3C//DTD SVG 20010904//EN"
 "http://www.w3.org/TR/2001/REC-SVG-20010904/DTD/svg10.dtd">
<svg version="1.0" xmlns="http://www.w3.org/2000/svg"
 width="1384.000000pt" height="1384.000000pt" viewBox="0 0 1384.000000 1384.000000"
 preserveAspectRatio="xMidYMid meet">
<metadata>
Created by potrace 1.14, written by Peter Selinger 2001-2017
</metadata>
<g transform="translate(0.000000,1384.000000) scale(0.100000,-0.100000)"
fill="#000000" stroke="none">
<path d="M9527 13334 c-1 -1 -45 -5 -97 -9 -52 -4 -97 -8 -100 -10 -3 -2 -45
-6 -95 -10 -49 -4 -92 -8 -95 -10 -3 -1 -39 -6 -81 -9 -42 -4 -87 -9 -100 -11
-43 -7 -123 -17 -169 -21 -25 -2 -61 -6 -80 -9 -19 -3 -57 -7 -85 -10 -27 -3
-66 -8 -85 -10 -46 -6 -136 -16 -180 -20 -19 -2 -48 -6 -65 -8 -16 -3 -59 -9
-95 -12 -36 -4 -78 -9 -95 -11 -16 -2 -52 -6 -80 -9 -27 -4 -61 -8 -75 -10
-14 -2 -50 -7 -80 -10 -30 -4 -66 -8 -80 -10 -35 -5 -128 -15 -173 -20 -21 -2
-56 -6 -77 -10 -21 -4 -56 -8 -77 -10 -41 -3 -123 -14 -163 -21 -14 -2 -47 -6
-75 -9 -27 -3 -67 -8 -87 -11 -20 -3 -55 -7 -77 -9 -41 -3 -131 -15 -164 -21
-10 -2 -48 -6 -85 -10 -36 -3 -73 -7 -82 -9 -18 -3 -97 -13 -160 -20 -53 -6
-127 -16 -155 -21 -11 -2 -48 -7 -81 -9 -34 -3 -72 -8 -85 -10 -13 -3 -44 -7
-69 -10 -25 -3 -67 -8 -95 -11 -27 -4 -59 -8 -70 -10 -37 -7 -90 -14 -145 -19
-30 -2 -64 -7 -75 -9 -12 -2 -51 -7 -87 -10 -37 -4 -76 -9 -87 -11 -11 -2 -46
-6 -78 -10 -62 -7 -83 -9 -150 -19 -24 -3 -60 -8 -80 -11 -48 -6 -122 -16
-148 -20 -11 -1 -49 -6 -85 -10 -36 -3 -78 -9 -95 -12 -16 -2 -47 -7 -67 -9
-21 -2 -55 -6 -75 -8 -47 -5 -128 -16 -168 -22 -66 -11 -82 -13 -140 -19 -60
-6 -80 -9 -145 -20 -19 -4 -55 -8 -80 -11 -56 -5 -119 -13 -145 -18 -11 -2
-47 -7 -80 -11 -76 -8 -121 -14 -154 -19 -14 -3 -45 -7 -68 -11 -23 -4 -59 -8
-80 -10 -21 -2 -54 -6 -73 -9 -19 -3 -57 -8 -85 -12 -27 -3 -59 -8 -70 -10
-11 -3 -40 -6 -65 -9 -25 -2 -59 -6 -75 -9 -17 -2 -50 -7 -75 -11 -25 -4 -58
-9 -75 -12 -16 -2 -46 -6 -65 -8 -40 -3 -102 -12 -180 -25 -30 -5 -73 -12 -95
-15 -22 -3 -53 -8 -70 -11 -16 -3 -41 -7 -55 -9 -68 -9 -79 -17 -104 -69 -50
-106 -99 -213 -126 -276 -15 -36 -66 -153 -115 -260 -84 -187 -196 -443 -255
-580 -15 -36 -80 -186 -145 -335 -187 -431 -524 -1212 -564 -1310 -21 -49 -54
-126 -73 -170 -20 -44 -86 -199 -148 -345 -61 -146 -125 -294 -140 -330 -38
-86 -287 -670 -315 -740 -13 -30 -59 -140 -103 -245 -172 -408 -326 -775 -367
-875 -24 -58 -78 -188 -120 -290 -195 -471 -219 -535 -223 -591 -5 -61 -4 -61
102 -194 25 -31 285 -379 371 -496 63 -86 284 -379 297 -393 12 -15 304 -403
501 -666 88 -118 176 -235 195 -260 63 -82 266 -351 302 -400 40 -54 210 -279
225 -297 16 -20 28 -35 63 -83 76 -104 178 -238 216 -286 23 -28 55 -71 72
-95 17 -24 83 -111 146 -194 62 -82 197 -260 298 -395 102 -135 187 -247 190
-250 3 -3 32 -41 66 -85 33 -44 97 -127 141 -185 43 -58 151 -199 238 -315 88
-115 213 -281 280 -369 66 -87 143 -190 172 -227 28 -38 64 -84 80 -102 57
-67 109 -131 163 -201 l56 -71 109 1 c116 1 281 13 405 29 19 2 64 7 100 10
36 4 83 8 105 11 22 2 63 6 90 9 78 8 148 17 170 21 11 2 52 6 92 9 40 4 83 8
95 11 34 6 97 14 148 18 25 2 66 7 90 10 50 6 105 12 194 22 33 3 69 8 80 10
11 2 54 6 95 10 42 3 78 7 82 9 3 2 41 7 85 11 75 6 109 11 109 14 0 1 19 3
43 6 23 2 61 6 85 8 23 3 42 5 42 6 0 1 14 3 30 5 17 2 48 5 70 8 22 3 67 9
100 12 33 3 89 10 125 15 36 5 92 12 125 15 33 3 71 8 85 10 14 3 48 7 75 10
28 3 71 8 95 10 25 3 63 7 85 9 22 3 54 7 70 10 17 3 56 8 88 10 32 3 61 7 65
10 4 2 41 7 83 10 41 4 84 8 96 10 12 3 50 7 85 11 35 3 70 8 78 10 8 3 44 7
80 10 36 3 76 7 90 10 30 5 87 13 155 20 28 3 66 8 85 10 61 8 124 16 165 20
22 3 49 7 60 9 11 2 49 7 85 11 66 6 80 8 160 20 25 4 56 8 70 10 14 2 53 7
88 10 35 4 71 8 80 10 18 3 86 11 167 20 28 3 64 7 80 10 63 9 102 14 155 20
30 3 62 8 70 10 8 2 44 7 80 10 36 4 72 8 80 10 9 2 47 6 85 10 38 3 72 8 75
10 3 2 30 6 60 10 61 6 106 12 240 30 14 2 50 7 80 10 111 13 126 15 165 21
22 3 54 8 70 11 17 2 46 6 65 8 19 2 53 7 75 10 46 7 93 13 150 20 22 2 56 7
75 10 19 3 55 8 80 11 25 3 56 7 70 9 61 10 143 22 220 31 25 3 62 10 83 15
44 12 48 19 219 409 50 113 121 275 158 360 38 85 105 241 150 345 89 205 143
330 168 385 8 19 32 76 53 125 42 102 97 229 127 295 11 25 97 227 192 450
188 441 344 808 365 855 7 17 36 84 63 150 28 66 97 228 153 360 55 132 123
292 149 355 26 63 98 234 160 380 62 146 130 306 150 355 67 160 240 577 287
690 216 520 353 876 353 920 0 13 -24 54 -52 92 -29 37 -80 109 -113 158 -55
83 -169 237 -445 605 -195 258 -955 1273 -970 1294 -8 12 -67 91 -130 176 -64
85 -125 167 -135 181 -34 45 -169 223 -182 239 -7 8 -40 53 -74 100 -35 47
-82 110 -106 140 -55 70 -55 70 -75 101 -9 14 -23 32 -30 40 -8 8 -28 35 -46
61 -18 25 -38 52 -45 60 -7 7 -66 85 -132 173 -66 88 -124 165 -130 172 -5 7
-16 19 -22 27 -7 8 -13 18 -13 23 0 4 -11 18 -24 32 -13 15 -37 45 -52 67 -16
23 -105 142 -199 265 -359 474 -412 544 -460 609 -45 61 -194 258 -287 380
-74 96 -244 324 -273 364 -16 24 -56 77 -88 119 -52 67 -63 76 -105 87 -39 9
-116 12 -125 4z m-377 -470 c0 -23 -550 -1009 -725 -1299 -70 -117 -94 -147
-113 -141 -22 7 -66 14 -122 22 -25 3 -58 9 -75 14 -16 4 -46 11 -65 14 -42 7
-69 12 -136 26 -28 6 -64 13 -80 16 -24 4 -116 23 -345 69 -9 2 -33 6 -54 9
-20 4 -40 8 -44 10 -3 3 -26 7 -51 11 -25 4 -48 9 -52 11 -21 14 -8 -31 48
-154 13 -29 24 -61 24 -72 0 -11 5 -20 10 -20 6 0 10 -7 10 -15 0 -15 4 -25
32 -77 16 -32 34 -68 48 -100 10 -21 22 -28 59 -34 58 -9 63 -10 120 -23 25
-6 57 -13 71 -15 14 -3 36 -7 50 -10 14 -3 50 -10 80 -16 97 -19 99 -20 94
-33 -3 -8 -70 -62 -149 -121 l-145 -108 27 -47 c15 -25 35 -58 45 -72 17 -26
41 -80 38 -88 -1 -2 3 -7 8 -10 14 -8 82 -108 82 -120 0 -4 7 -14 14 -21 12
-9 52 16 220 144 184 140 226 168 226 151 0 -3 18 -140 39 -303 21 -163 54
-412 72 -552 18 -140 37 -260 43 -267 6 -6 22 -25 36 -42 14 -16 41 -47 60
-69 19 -22 50 -58 68 -80 35 -43 52 -63 160 -180 96 -105 154 -164 158 -160 2
2 -1 33 -6 68 -8 60 -173 1366 -185 1472 -3 25 -1 49 4 52 9 6 113 -52 119
-66 2 -5 7 -8 12 -8 4 0 41 -22 82 -49 40 -27 138 -91 218 -143 210 -137 479
-314 855 -563 182 -120 411 -271 510 -336 99 -66 214 -142 255 -170 41 -28
138 -92 215 -143 77 -50 583 -388 1125 -751 542 -362 1015 -679 1053 -703 37
-25 67 -51 67 -59 0 -55 -247 -309 -1992 -2052 -1584 -1583 -1647 -1646 -1657
-1635 -5 5 -18 81 -29 169 -12 88 -46 347 -76 575 -31 228 -56 423 -56 433 0
26 -12 21 -66 -28 -27 -25 -80 -73 -118 -107 -118 -107 -196 -190 -196 -210 0
-11 25 -216 55 -456 55 -428 60 -489 40 -485 -5 1 -118 48 -250 103 -132 56
-278 117 -325 136 -47 19 -97 41 -112 49 -25 14 -27 14 -53 -17 -79 -96 -101
-123 -115 -138 -8 -8 -26 -31 -40 -50 -13 -19 -30 -41 -37 -48 -7 -7 -13 -17
-13 -21 0 -5 -12 -20 -26 -35 -15 -14 -22 -26 -16 -26 6 0 58 -23 117 -50 59
-28 108 -50 111 -50 2 0 42 -18 89 -40 47 -22 88 -40 90 -40 3 0 49 -21 102
-46 54 -25 116 -53 138 -62 48 -18 95 -50 95 -63 0 -5 -12 -14 -26 -19 -15 -6
-38 -19 -53 -29 -14 -10 -42 -28 -61 -39 -19 -11 -64 -37 -100 -57 -36 -21
-78 -45 -95 -53 -16 -8 -43 -24 -60 -36 -16 -11 -35 -21 -42 -22 -6 -1 -27
-14 -46 -28 -19 -14 -39 -26 -46 -26 -7 0 -27 -11 -44 -24 -18 -13 -45 -30
-62 -38 -61 -31 -130 -70 -157 -90 -15 -10 -28 -16 -28 -12 0 3 -6 2 -12 -4
-12 -10 -93 -57 -186 -108 -23 -13 -64 -36 -90 -50 -26 -15 -60 -34 -77 -42
-16 -8 -44 -26 -61 -39 -17 -13 -35 -23 -41 -23 -5 0 -47 -22 -94 -50 -87 -51
-102 -71 -149 -185 -7 -16 -16 -38 -21 -47 -5 -10 -9 -23 -9 -30 0 -7 -7 -26
-16 -43 -17 -30 -53 -121 -81 -205 -9 -25 -24 -64 -35 -87 -33 -72 -25 -73 82
-9 25 14 63 36 85 47 22 11 63 33 90 49 28 16 66 38 85 49 19 10 56 30 82 45
89 50 143 79 198 109 111 60 126 68 175 96 28 16 86 48 130 71 44 23 87 48 95
55 8 7 31 20 50 29 19 9 58 30 85 46 28 16 61 35 75 42 14 7 42 23 63 35 20
13 37 21 37 17 0 -3 13 4 29 15 16 12 62 38 102 60 41 21 95 51 121 65 26 15
67 37 90 50 24 13 66 36 93 51 28 15 54 31 60 36 5 5 16 9 24 9 8 0 22 6 30
14 24 22 262 146 280 146 10 0 200 -233 294 -362 31 -43 63 -86 71 -95 8 -10
65 -85 127 -168 62 -82 118 -155 124 -162 5 -6 26 -35 45 -63 67 -97 260 -360
447 -609 52 -68 90 -128 86 -132 -7 -6 -39 -12 -148 -24 -16 -2 -55 -6 -85
-10 -30 -3 -62 -8 -70 -10 -8 -3 -44 -7 -80 -11 -71 -6 -95 -9 -155 -17 -45
-6 -144 -18 -190 -23 -16 -1 -46 -5 -65 -8 -19 -2 -60 -7 -90 -11 -30 -3 -62
-8 -70 -10 -8 -3 -47 -7 -86 -10 -39 -3 -82 -8 -95 -10 -13 -3 -46 -7 -74 -10
-27 -2 -59 -6 -70 -9 -11 -2 -47 -7 -80 -10 -76 -9 -143 -17 -175 -21 -78 -11
-111 -15 -165 -20 -64 -7 -115 -13 -155 -20 -26 -5 -121 -15 -175 -20 -30 -3
-110 -13 -154 -20 -14 -3 -54 -7 -90 -11 -36 -3 -74 -8 -86 -10 -11 -2 -45 -7
-75 -9 -56 -5 -110 -12 -146 -19 -11 -2 -50 -7 -86 -10 -37 -4 -75 -8 -85 -10
-10 -2 -45 -7 -78 -10 -109 -13 -140 -16 -175 -21 -19 -2 -60 -7 -90 -10 -57
-6 -75 -9 -149 -20 -24 -4 -60 -9 -80 -10 -20 -2 -54 -5 -76 -8 -22 -4 -65 -9
-95 -12 -30 -3 -66 -7 -80 -10 -34 -7 -95 -15 -155 -20 -27 -2 -68 -7 -90 -11
-77 -11 -90 -13 -145 -19 -30 -3 -71 -8 -90 -10 -36 -5 -71 -9 -175 -21 -33
-3 -62 -8 -65 -9 -3 -2 -37 -6 -75 -10 -39 -3 -81 -8 -95 -10 -25 -4 -57 -8
-155 -20 -27 -3 -66 -8 -85 -10 -19 -3 -53 -7 -75 -10 -22 -3 -56 -7 -75 -10
-19 -2 -55 -7 -80 -10 -25 -3 -63 -8 -85 -11 -72 -11 -148 -10 -152 3 -4 10
64 55 172 114 17 9 53 29 80 44 28 16 70 39 95 53 25 14 63 35 85 48 22 12 62
34 90 49 27 15 61 34 75 44 14 9 36 23 50 29 14 7 48 26 75 43 28 16 68 38 90
50 22 11 58 30 80 43 22 12 67 38 100 56 92 50 126 69 180 100 28 16 69 38 93
49 37 18 42 24 37 43 -26 90 -39 126 -56 160 -5 9 -12 35 -15 58 -4 22 -10 40
-15 40 -5 0 -9 9 -9 19 0 11 -4 22 -9 25 -5 4 -12 24 -16 45 l-6 39 -42 -23
c-103 -56 -262 -147 -274 -157 -7 -6 -13 -7 -13 -3 0 4 -15 -4 -33 -18 -18
-14 -49 -32 -68 -41 -19 -9 -56 -29 -84 -45 -27 -16 -84 -46 -125 -67 -41 -20
-82 -42 -90 -49 -8 -7 -40 -26 -70 -42 -126 -68 -264 -144 -325 -179 -22 -13
-63 -35 -92 -50 -29 -14 -57 -32 -64 -40 -6 -8 -18 -14 -26 -14 -8 0 -27 -8
-41 -19 -15 -10 -43 -26 -62 -35 -19 -9 -53 -27 -75 -40 -38 -22 -103 -58
-152 -84 -13 -7 -33 -17 -45 -24 -91 -48 -115 -62 -129 -74 -8 -8 -22 -14 -30
-14 -8 0 -19 -4 -24 -9 -6 -5 -30 -20 -55 -33 -42 -23 -75 -41 -110 -59 -96
-52 -134 -69 -141 -62 -4 4 -21 50 -38 100 -17 51 -35 103 -41 115 -5 13 -63
192 -130 398 -67 206 -134 413 -150 460 -29 89 -134 415 -202 630 -21 69 -45
143 -53 165 -7 22 -39 121 -70 220 -31 99 -70 218 -85 265 -15 47 -51 159 -80
250 -29 91 -76 239 -105 330 -93 292 -163 511 -210 665 -26 83 -51 164 -56
180 -6 17 -21 64 -34 105 -13 41 -49 156 -80 255 -31 99 -72 232 -91 295 -20
63 -51 162 -69 220 -18 58 -50 159 -70 225 -20 66 -45 147 -55 180 -10 33 -22
77 -26 99 -6 37 -6 38 17 31 28 -9 180 -70 224 -91 100 -46 451 -191 455 -187
5 5 -1 9 -85 58 -50 29 -84 51 -135 85 -14 9 -46 27 -72 40 -27 13 -48 27 -48
32 0 4 -8 8 -19 8 -10 0 -24 7 -31 15 -7 8 -19 15 -26 15 -8 0 -14 5 -14 10 0
6 -8 10 -18 10 -10 0 -28 8 -42 17 -35 25 -153 83 -167 83 -7 0 -13 3 -13 8 0
8 -73 42 -90 42 -6 0 -10 5 -10 10 0 6 -5 10 -12 10 -10 0 -93 37 -201 91 -22
10 -46 19 -55 19 -10 0 -37 11 -61 25 -23 14 -49 25 -57 25 -8 0 -37 11 -64
24 -28 14 -65 28 -83 32 -17 3 -43 14 -56 22 -13 9 -33 18 -45 19 -12 2 -48
14 -81 27 -102 40 -137 41 -281 5 -71 -17 -138 -33 -149 -34 -11 -2 -20 -4
-20 -5 0 -1 -9 -3 -19 -5 -11 -2 -47 -11 -80 -19 -96 -24 -188 -44 -226 -51
-19 -3 -48 -10 -65 -15 -16 -5 -41 -11 -55 -14 -23 -4 -94 -18 -112 -22 -5 -1
-9 -2 -10 -4 -3 -2 -11 -3 -73 -14 -16 -2 -30 -5 -30 -6 0 -6 -210 -40 -248
-40 -35 0 -38 2 -31 22 7 22 57 142 236 563 45 105 141 332 215 505 74 173
141 331 150 350 8 19 56 130 105 245 49 116 110 257 135 315 25 58 63 146 83
195 44 106 370 864 394 915 8 19 43 100 77 180 33 80 67 159 74 175 8 17 25
58 39 92 15 35 38 89 52 120 15 32 46 103 69 158 80 189 233 540 267 610 l33
70 3 -50 c2 -43 -37 -618 -68 -1005 -6 -69 -26 -327 -45 -575 -19 -247 -42
-531 -50 -630 -8 -99 -24 -288 -35 -420 -10 -132 -31 -375 -45 -540 -44 -507
-42 -475 -28 -475 7 0 21 4 31 9 43 23 92 41 110 41 11 0 22 3 24 8 4 8 51 31
128 60 30 12 69 27 85 33 17 7 33 12 37 11 13 -3 19 38 38 284 49 633 61 786
80 1019 11 138 29 363 40 500 11 138 29 360 40 495 11 135 27 331 35 435 25
309 40 494 90 1075 9 102 20 230 25 285 5 55 14 154 20 220 5 66 14 158 20
205 5 47 10 88 10 93 0 13 53 8 196 -19 76 -14 153 -28 169 -30 25 -4 57 -11
135 -29 3 -1 28 -5 55 -10 28 -4 59 -10 70 -12 11 -3 40 -9 65 -13 71 -13 86
-16 255 -50 88 -17 201 -40 250 -50 88 -19 270 -54 330 -64 17 -3 84 -16 150
-30 66 -13 134 -27 150 -30 17 -3 39 -7 50 -10 20 -4 468 -94 515 -103 14 -2
44 -8 68 -14 23 -5 59 -12 80 -15 20 -3 40 -8 43 -10 3 -2 21 -6 40 -9 19 -3
133 -26 254 -51 121 -25 254 -52 295 -60 41 -8 116 -23 165 -33 l90 -18 27 46
c15 25 28 52 28 59 0 13 20 65 40 102 4 9 11 31 15 50 4 19 14 45 22 57 9 13
12 23 7 23 -4 0 -3 5 4 12 24 24 14 45 -25 51 -21 4 -83 16 -138 28 -55 11
-111 23 -125 26 -29 5 -213 40 -250 47 -14 3 -79 17 -145 31 -66 14 -142 30
-170 35 -27 5 -57 11 -65 14 -8 3 -31 7 -50 10 -19 3 -46 8 -60 11 -14 4 -56
12 -95 20 -38 7 -95 18 -125 24 -30 6 -68 14 -85 17 -16 2 -43 9 -60 13 -16 5
-46 12 -65 15 -36 6 -68 13 -107 21 -13 3 -35 7 -50 10 -32 5 -68 13 -288 60
-88 18 -173 36 -190 39 -16 3 -39 7 -50 10 -11 2 -54 12 -95 21 -41 9 -82 18
-90 20 -8 2 -18 4 -22 4 -5 1 -8 8 -8 16 0 9 6 15 13 14 6 -1 28 0 47 4 19 3
71 11 115 17 44 6 91 13 105 15 14 2 53 7 88 10 35 4 73 8 85 11 29 5 82 12
142 19 76 8 127 15 160 22 31 6 41 7 140 18 33 4 71 8 85 10 14 2 52 6 85 9
33 3 71 8 85 11 14 2 48 7 75 10 84 10 190 24 228 31 10 2 48 6 85 10 36 3 75
8 87 10 11 2 38 6 60 9 22 3 58 8 80 11 22 3 57 7 78 9 35 3 78 9 152 22 17 2
50 6 75 8 25 3 63 7 85 10 67 11 88 13 155 20 36 4 74 9 85 11 11 3 45 7 75
10 72 8 97 11 145 18 22 3 60 8 85 11 25 3 81 10 125 16 119 15 136 18 188 24
26 3 68 7 95 10 85 10 189 24 225 31 10 2 48 6 85 10 36 3 73 7 82 9 8 1 38 5
65 9 28 3 70 8 95 11 25 3 54 7 65 9 11 2 49 7 85 11 36 3 77 8 93 11 15 2 39
6 55 8 15 3 52 7 82 11 87 9 153 17 175 21 11 2 45 6 75 9 30 3 66 7 80 9 14
3 52 8 85 11 33 3 91 10 129 16 37 5 98 12 134 15 37 3 67 6 69 7 1 1 22 3 47
4 36 2 46 -1 46 -13z m545 -249 c39 -49 163 -211 275 -360 240 -318 371 -490
628 -823 48 -63 103 -135 122 -162 19 -26 89 -119 155 -205 66 -86 136 -178
155 -204 19 -27 96 -128 170 -225 74 -98 142 -188 150 -200 18 -27 80 -106 97
-124 7 -7 13 -17 13 -22 0 -4 19 -32 43 -62 24 -29 58 -73 75 -98 62 -88 142
-194 614 -823 263 -349 479 -641 480 -649 4 -17 -27 -12 -61 12 -14 9 -93 62
-176 116 -82 53 -337 221 -565 373 -228 151 -624 413 -880 583 -256 169 -469
311 -475 315 -11 9 -1408 942 -1433 958 -9 6 -53 35 -97 65 -44 31 -108 73
-142 95 -50 32 -63 45 -63 66 0 47 49 151 207 444 33 61 79 146 103 190 23 44
60 109 80 145 21 36 91 160 155 275 114 204 212 376 242 423 14 23 15 23 35 5
12 -10 53 -58 93 -108z m3255 -5901 c0 -18 -77 -224 -167 -449 -94 -233 -265
-647 -306 -740 -46 -106 -316 -741 -327 -771 -5 -13 -18 -43 -29 -67 -20 -44
-161 -376 -301 -707 -45 -107 -120 -283 -165 -390 -46 -107 -127 -298 -180
-425 -53 -126 -117 -277 -142 -335 -25 -58 -81 -190 -125 -295 -44 -104 -92
-219 -107 -255 -95 -224 -146 -340 -151 -340 -3 1 -41 49 -85 108 -85 114
-295 386 -408 530 -77 97 -171 220 -202 263 -11 15 -80 108 -154 206 -168 223
-222 296 -295 401 l-57 83 31 35 c63 72 460 471 1760 1771 734 733 1348 1347
1364 1363 33 34 46 38 46 14z m-10650 -499 c21 -60 65 -198 100 -305 34 -107
81 -256 105 -330 24 -74 76 -236 115 -360 39 -124 77 -243 85 -265 7 -22 41
-128 75 -235 34 -107 76 -238 92 -290 17 -52 36 -113 44 -135 7 -22 45 -141
84 -265 39 -124 77 -243 85 -265 7 -22 27 -87 45 -145 17 -58 37 -121 44 -140
7 -19 20 -57 29 -85 77 -250 103 -334 132 -425 19 -58 59 -186 90 -285 31 -99
63 -198 70 -220 8 -22 34 -105 58 -185 25 -80 59 -190 76 -245 32 -103 38
-139 22 -133 -5 2 -36 35 -68 75 -180 222 -215 267 -284 358 -82 109 -272 359
-438 579 -162 213 -216 285 -273 362 -62 84 -279 370 -302 399 -25 31 -326
430 -366 485 -19 26 -108 144 -197 261 -88 118 -180 239 -202 269 -23 30 -57
75 -76 100 -382 504 -855 1144 -855 1156 0 16 45 39 100 48 34 7 60 12 70 16
3 1 10 3 15 4 13 2 142 33 235 56 41 11 86 22 100 24 14 2 27 5 30 6 3 1 10 3
15 4 15 2 178 40 197 46 57 16 120 31 150 35 20 3 48 9 61 14 14 6 43 12 66
16 23 3 62 12 88 20 25 8 50 12 54 9 4 -2 10 0 14 6 4 6 10 8 15 5 5 -3 19 -1
33 4 14 5 44 13 67 16 23 3 53 10 66 16 14 5 28 8 32 8 4 -1 9 0 12 1 5 2 17
4 84 14 21 3 40 7 42 8 1 2 30 3 65 3 l62 0 37 -110z"/>
<path d="M6892 11429 c-50 -10 -80 -44 -87 -98 -4 -25 -16 -71 -26 -101 -11
-30 -29 -104 -40 -164 -11 -60 -26 -118 -34 -130 -8 -11 -15 -29 -15 -39 0
-10 -9 -31 -19 -46 -11 -15 -22 -45 -26 -66 -4 -22 -14 -51 -21 -65 -19 -37
-64 -139 -64 -148 0 -7 -20 -54 -70 -169 -12 -29 -27 -53 -31 -53 -5 0 -9 -8
-9 -19 0 -10 -9 -29 -19 -43 -11 -13 -23 -36 -26 -50 -4 -14 -15 -35 -26 -47
-10 -11 -19 -24 -19 -30 0 -5 -16 -37 -35 -71 -19 -34 -35 -68 -35 -75 0 -7
-7 -15 -15 -18 -8 -4 -21 -21 -29 -39 -9 -18 -21 -42 -28 -52 -7 -11 -41 -62
-75 -114 -35 -51 -63 -98 -63 -102 0 -5 -18 -30 -40 -55 -22 -25 -40 -50 -40
-55 0 -5 -16 -25 -35 -44 -19 -20 -35 -40 -35 -46 0 -5 -4 -10 -9 -10 -5 0
-12 -14 -16 -30 -4 -17 -15 -35 -26 -40 -10 -6 -19 -16 -19 -22 0 -7 -19 -31
-42 -53 -55 -52 -88 -92 -88 -105 0 -6 -4 -10 -10 -10 -5 0 -10 -11 -10 -24 0
-18 -11 -30 -42 -48 -23 -13 -48 -33 -54 -46 -11 -22 -28 -43 -66 -80 -10 -9
-18 -20 -18 -24 0 -11 -130 -138 -141 -138 -5 0 -9 -9 -9 -19 0 -11 -9 -23
-20 -26 -11 -3 -20 -9 -20 -13 0 -9 -56 -72 -63 -72 -8 0 -57 -49 -57 -56 0
-3 -16 -21 -35 -40 -19 -18 -35 -38 -35 -43 0 -5 -9 -13 -20 -16 -11 -3 -20
-15 -20 -26 0 -10 -5 -19 -11 -19 -6 0 -47 -36 -91 -80 -45 -44 -85 -80 -90
-80 -4 0 -8 -5 -8 -11 0 -13 -23 -35 -96 -93 -27 -22 -60 -50 -73 -63 -13 -13
-28 -23 -32 -23 -5 0 -9 -9 -9 -20 0 -13 -13 -26 -43 -39 -23 -11 -80 -56
-124 -100 -46 -45 -91 -81 -101 -81 -11 0 -25 -7 -32 -15 -7 -8 -18 -15 -26
-15 -7 0 -16 -9 -19 -20 -3 -11 -13 -20 -20 -20 -8 0 -18 -6 -22 -13 -4 -7
-25 -23 -45 -36 -21 -12 -38 -26 -38 -29 0 -4 -15 -13 -32 -21 -18 -8 -55 -30
-83 -51 -27 -20 -61 -43 -75 -50 -13 -7 -31 -19 -38 -27 -7 -7 -20 -13 -28
-13 -8 0 -14 -4 -14 -9 0 -5 -22 -18 -48 -29 -27 -12 -54 -28 -61 -36 -6 -7
-34 -23 -61 -35 -27 -12 -52 -26 -55 -31 -3 -6 -15 -10 -26 -10 -11 0 -31 -11
-45 -25 -14 -14 -31 -25 -37 -25 -19 0 -67 -24 -67 -32 0 -5 -9 -8 -20 -8 -12
0 -29 -8 -40 -18 -10 -9 -51 -28 -90 -42 -40 -14 -74 -28 -77 -32 -2 -5 -12
-8 -21 -8 -9 0 -30 -7 -46 -15 -15 -8 -37 -15 -47 -15 -11 0 -19 -4 -19 -10 0
-5 -5 -10 -11 -10 -5 0 -29 -8 -52 -19 -23 -10 -61 -22 -84 -26 -22 -3 -49
-15 -59 -26 -9 -10 -29 -19 -43 -19 -15 0 -36 -7 -48 -15 -12 -8 -72 -24 -135
-34 -62 -11 -136 -29 -164 -39 -28 -11 -71 -22 -95 -26 -56 -9 -85 -32 -96
-76 -16 -58 16 -140 54 -140 7 0 21 -4 31 -8 39 -20 182 -61 247 -72 82 -14
106 -22 200 -65 39 -18 89 -38 113 -44 23 -7 42 -16 42 -21 0 -6 9 -10 20 -10
11 0 34 -8 52 -18 18 -11 51 -22 73 -26 22 -4 42 -11 45 -14 3 -4 39 -23 80
-42 41 -19 77 -38 78 -42 2 -5 15 -8 28 -8 13 0 29 -9 36 -20 7 -11 20 -20 29
-20 16 0 122 -51 144 -70 5 -5 22 -11 37 -15 15 -4 29 -13 32 -21 3 -8 15 -14
26 -14 11 0 20 -4 20 -8 0 -5 19 -17 43 -27 23 -10 62 -33 86 -52 24 -18 49
-33 56 -33 6 0 25 -12 42 -27 17 -16 57 -41 89 -57 32 -17 73 -45 92 -63 18
-18 39 -33 46 -33 7 0 26 -12 42 -27 30 -29 54 -45 90 -62 11 -5 27 -16 35
-23 8 -8 22 -19 31 -24 9 -5 43 -34 75 -65 32 -30 78 -65 103 -76 27 -12 52
-33 60 -50 19 -35 35 -53 50 -53 7 0 21 -11 32 -25 11 -14 25 -25 33 -25 7 0
15 -7 19 -15 3 -8 11 -15 17 -15 14 0 139 -125 139 -140 0 -5 7 -10 15 -10 17
0 115 -93 115 -109 0 -6 5 -11 12 -11 12 0 138 -129 138 -142 0 -4 5 -8 11 -8
12 0 109 -97 109 -110 0 -11 118 -130 129 -130 5 0 14 -14 21 -30 7 -17 27
-45 45 -63 18 -18 35 -42 39 -55 4 -12 14 -22 23 -22 22 0 73 -56 73 -80 0
-11 5 -20 10 -20 6 0 10 -5 10 -12 0 -7 9 -21 20 -33 21 -21 98 -105 129 -141
10 -11 21 -31 24 -45 4 -13 25 -44 47 -68 22 -24 40 -49 40 -56 0 -8 13 -26
28 -42 16 -15 39 -48 53 -73 13 -25 27 -46 32 -48 4 -2 7 -9 7 -16 0 -7 14
-28 30 -46 16 -18 30 -39 30 -46 0 -7 6 -19 13 -26 20 -22 52 -71 70 -108 10
-19 27 -48 37 -65 11 -16 26 -44 34 -61 8 -17 19 -35 25 -38 6 -4 11 -16 11
-27 0 -11 11 -37 25 -57 14 -20 25 -44 25 -52 0 -8 9 -21 20 -28 11 -7 20 -21
20 -31 0 -11 15 -45 33 -78 18 -32 43 -87 56 -123 12 -36 31 -82 42 -103 10
-22 19 -45 19 -52 0 -7 6 -18 14 -24 8 -7 17 -31 21 -54 4 -23 13 -52 21 -64
8 -12 14 -29 14 -38 0 -8 4 -15 9 -15 5 0 13 -15 16 -33 4 -17 11 -37 16 -43
6 -7 19 -58 30 -115 11 -56 23 -107 28 -113 5 -6 17 -43 26 -83 25 -105 77
-142 168 -120 30 8 42 18 57 50 11 23 20 53 20 68 0 15 4 31 10 34 6 3 10 14
10 24 0 10 6 31 14 47 7 16 19 65 25 109 14 90 31 155 41 155 4 0 10 18 14 40
3 23 13 43 21 46 9 4 17 26 21 55 4 27 10 49 15 49 4 0 13 17 20 38 6 20 15
42 19 47 5 6 16 36 25 67 9 31 28 83 44 115 15 32 33 73 40 90 8 18 17 33 22
33 5 0 9 8 9 18 0 10 9 28 20 40 11 12 20 30 20 41 0 12 15 45 34 74 19 29 49
84 66 120 17 37 35 67 40 67 4 0 11 11 14 24 6 26 78 136 109 168 9 10 17 22
17 27 0 14 68 123 95 151 14 14 25 30 25 36 0 9 33 51 88 112 12 14 22 33 22
43 0 11 4 19 8 19 5 0 17 16 28 35 10 19 27 38 36 41 10 3 18 9 18 14 0 5 18
27 40 49 22 22 40 44 40 50 0 6 5 11 10 11 6 0 10 11 10 25 0 17 9 29 28 39
29 15 72 60 72 76 0 6 7 10 15 10 9 0 20 11 25 25 5 14 14 25 20 25 5 0 10 7
10 15 0 9 7 18 15 21 8 3 17 14 20 25 4 10 11 19 16 19 14 0 108 102 109 118
0 6 4 12 10 12 12 0 60 48 60 60 0 6 6 10 14 10 7 0 28 18 47 41 42 51 47 56
98 98 23 19 41 40 41 47 0 8 4 14 10 14 5 0 26 16 47 35 21 19 58 53 82 75 24
22 47 40 52 40 5 0 9 6 9 13 0 17 36 48 89 79 23 13 41 28 41 33 0 6 15 18 33
28 18 10 41 34 52 53 13 24 28 37 47 41 15 3 28 9 28 14 0 5 5 9 12 9 6 0 18
6 27 14 9 8 41 37 72 65 31 28 61 51 67 51 7 0 12 4 12 9 0 5 15 16 33 26 76
40 87 47 87 55 0 6 25 24 56 41 31 18 58 38 61 45 3 8 37 30 77 50 39 20 82
47 97 60 14 13 29 24 35 24 5 0 36 18 68 40 33 21 98 58 145 82 47 24 91 48
96 54 6 7 23 15 38 18 16 4 38 16 50 26 11 11 31 20 44 20 13 0 23 4 23 8 0 5
10 13 23 19 12 6 69 33 127 61 58 27 130 57 160 67 30 9 78 28 105 42 28 14
64 29 80 33 17 5 64 23 105 40 109 48 111 48 165 55 62 8 225 59 285 90 55 27
69 65 54 142 -7 38 -37 60 -95 69 -24 4 -66 16 -94 26 -27 11 -95 28 -150 38
-55 10 -116 25 -135 33 -19 9 -47 18 -62 21 -15 3 -33 13 -42 21 -8 8 -35 18
-60 21 -25 4 -46 10 -46 15 0 4 -10 11 -22 14 -13 4 -39 14 -58 22 -62 26 -74
31 -135 53 -84 30 -175 73 -175 82 0 4 -8 8 -19 8 -10 0 -29 8 -42 19 -13 10
-38 22 -56 25 -17 4 -37 14 -43 22 -13 15 -170 94 -189 94 -6 0 -11 6 -11 14
0 8 -19 21 -42 31 -24 9 -45 20 -48 24 -3 4 -26 20 -52 35 -27 15 -48 31 -48
35 0 4 -18 15 -40 25 -22 10 -40 21 -40 26 0 4 -17 15 -37 23 -21 8 -49 27
-62 41 -14 14 -30 26 -36 26 -6 0 -36 23 -66 50 -30 28 -66 53 -81 57 -16 3
-28 9 -28 13 0 4 -16 15 -35 26 -19 10 -38 27 -41 36 -3 10 -9 18 -13 18 -4 0
-26 18 -49 40 -22 22 -46 40 -52 40 -5 0 -10 5 -10 10 0 6 -11 10 -23 10 -17
0 -29 10 -42 34 -10 19 -27 40 -38 48 -11 7 -33 24 -48 38 -44 39 -58 50 -64
50 -12 0 -65 55 -65 67 0 7 -4 13 -8 13 -5 0 -26 18 -48 40 -21 22 -45 40 -51
40 -7 0 -13 4 -13 8 0 13 -32 47 -57 61 -13 6 -23 16 -23 22 0 6 -21 32 -47
58 -27 26 -62 64 -80 84 -18 20 -36 37 -40 37 -4 0 -19 15 -33 32 -14 18 -35
41 -47 52 -13 11 -23 23 -23 27 0 8 -113 125 -127 130 -5 2 -21 26 -36 52 -16
26 -37 53 -48 60 -10 6 -19 20 -19 30 0 9 -11 22 -24 27 -31 11 -76 60 -76 82
0 9 -24 43 -52 75 -29 32 -61 66 -70 77 -10 11 -20 27 -23 37 -3 9 -12 20 -20
23 -8 3 -21 20 -28 38 -8 18 -26 47 -41 63 -35 40 -39 45 -53 78 -7 15 -20 30
-28 33 -17 7 -85 117 -85 138 0 7 -13 25 -30 41 -16 16 -30 34 -30 41 0 7 -11
26 -25 43 -24 27 -62 95 -122 213 -13 26 -27 50 -32 53 -5 3 -12 19 -16 35 -4
17 -11 30 -16 30 -5 0 -9 7 -9 15 0 8 -4 15 -10 15 -5 0 -10 11 -10 25 0 14
-7 28 -15 31 -8 3 -17 16 -20 27 -7 26 -87 190 -96 197 -4 3 -10 21 -14 40 -3
19 -15 54 -26 77 -10 24 -19 50 -19 58 0 8 -4 15 -10 15 -5 0 -14 19 -21 43
-6 23 -26 74 -44 112 -41 89 -51 119 -71 230 -9 50 -19 95 -23 100 -4 6 -13
30 -20 55 -6 25 -16 54 -20 65 -5 11 -13 32 -19 46 -12 31 -69 49 -120 38z
m53 -826 c4 -21 17 -74 30 -118 12 -44 33 -125 45 -180 12 -55 31 -123 42
-151 18 -48 28 -100 46 -234 5 -30 16 -70 25 -89 9 -19 17 -44 17 -55 0 -12 9
-41 21 -65 11 -25 26 -72 33 -105 8 -34 22 -84 33 -112 11 -28 28 -84 38 -125
10 -41 21 -78 25 -84 4 -5 10 -28 14 -50 8 -45 56 -168 68 -173 5 -2 8 -24 8
-48 0 -24 4 -44 8 -44 11 0 32 -45 32 -66 0 -8 11 -39 24 -67 13 -29 29 -68
36 -87 29 -83 35 -98 56 -145 12 -27 28 -66 34 -85 7 -19 27 -64 45 -100 18
-36 38 -82 44 -102 7 -21 16 -38 20 -38 7 0 20 -27 61 -133 12 -31 35 -74 49
-95 15 -20 33 -53 41 -72 18 -47 94 -122 152 -151 55 -28 165 -82 228 -112 25
-12 47 -25 50 -28 3 -4 32 -19 65 -34 33 -14 76 -34 95 -44 19 -11 50 -22 68
-26 17 -3 32 -10 32 -15 0 -5 16 -14 36 -20 20 -7 48 -18 62 -26 15 -8 34 -14
43 -14 8 0 24 -7 35 -15 10 -8 31 -15 45 -15 14 0 34 -9 43 -19 10 -10 34 -22
54 -26 20 -4 53 -15 74 -26 20 -10 48 -19 62 -19 14 0 28 -4 31 -10 3 -5 15
-10 26 -10 10 0 19 -4 19 -9 0 -5 18 -11 40 -15 22 -3 40 -10 40 -15 0 -5 43
-19 95 -31 52 -12 98 -26 101 -31 3 -5 16 -9 30 -9 13 0 32 -4 42 -9 36 -18
119 -43 167 -51 28 -5 68 -17 90 -28 22 -11 58 -23 80 -27 22 -4 51 -13 65
-20 14 -7 48 -15 75 -18 114 -15 189 -28 199 -36 6 -5 22 -11 36 -14 14 -3 54
-13 90 -22 36 -9 106 -25 155 -35 50 -10 117 -26 150 -35 33 -9 74 -20 90 -24
50 -12 37 -35 -30 -49 -33 -8 -69 -17 -80 -22 -36 -16 -174 -51 -270 -69 -22
-4 -54 -15 -72 -24 -29 -16 -86 -27 -218 -44 -27 -3 -69 -14 -93 -25 -24 -10
-51 -18 -60 -18 -9 0 -30 -7 -47 -16 -16 -9 -61 -25 -100 -34 -38 -10 -86 -24
-105 -31 -58 -20 -62 -21 -145 -45 -151 -42 -180 -51 -245 -78 -36 -16 -83
-31 -106 -35 -22 -4 -51 -15 -64 -24 -14 -9 -35 -17 -47 -17 -12 0 -38 -9 -57
-19 -18 -11 -49 -24 -67 -30 -64 -19 -124 -42 -184 -70 -33 -15 -81 -34 -107
-42 -27 -7 -48 -17 -48 -21 0 -4 -6 -8 -13 -8 -18 0 -67 -24 -67 -32 0 -5 -10
-8 -23 -8 -12 0 -39 -11 -59 -25 -20 -14 -44 -25 -52 -25 -9 0 -16 -4 -16 -10
0 -5 -9 -10 -19 -10 -11 0 -23 -4 -26 -10 -3 -5 -13 -10 -22 -10 -21 0 -102
-38 -128 -60 -11 -9 -36 -23 -55 -31 -38 -15 -51 -23 -83 -56 -35 -34 -44 -47
-58 -89 -8 -21 -24 -50 -36 -64 -13 -14 -23 -29 -23 -33 0 -9 -24 -68 -41 -99
-5 -10 -9 -25 -9 -33 0 -8 -4 -15 -10 -15 -5 0 -10 -7 -10 -16 0 -9 -8 -28
-19 -42 -10 -15 -22 -38 -25 -52 -8 -27 -48 -112 -56 -120 -3 -3 -12 -25 -20
-50 -7 -25 -28 -76 -46 -115 -17 -38 -35 -85 -39 -102 -3 -18 -11 -35 -16 -38
-5 -4 -9 -14 -9 -24 0 -10 -11 -40 -25 -67 -14 -27 -25 -61 -25 -75 0 -15 -7
-32 -15 -39 -8 -7 -17 -28 -20 -49 -4 -20 -21 -74 -40 -121 -38 -96 -67 -190
-86 -270 -7 -30 -16 -59 -21 -65 -4 -5 -8 -18 -8 -30 0 -11 -7 -33 -15 -48 -8
-16 -20 -57 -26 -92 -6 -35 -17 -69 -25 -76 -7 -6 -16 -27 -19 -48 -6 -35 -10
-48 -33 -101 -6 -14 -13 -45 -16 -70 -12 -110 -27 -183 -45 -223 -11 -23 -22
-55 -25 -72 -15 -81 -40 -192 -47 -210 -14 -34 -37 -118 -44 -158 -3 -21 -12
-37 -19 -37 -15 0 -36 49 -36 83 0 12 -9 46 -20 76 -10 31 -26 92 -34 136 -25
133 -35 177 -57 237 -11 32 -29 111 -39 176 -11 64 -26 135 -34 157 -8 22 -15
47 -16 56 0 8 -9 35 -21 58 -11 24 -23 60 -26 80 -5 33 -55 200 -74 246 -5 11
-18 58 -30 105 -11 47 -25 89 -30 95 -5 5 -9 15 -9 23 0 13 -21 66 -41 104 -5
10 -9 27 -9 38 0 10 -8 34 -18 52 -11 18 -22 49 -26 69 -3 19 -15 45 -26 57
-11 12 -20 34 -20 49 0 15 -7 37 -15 47 -8 11 -15 27 -15 36 0 8 -9 32 -20 53
-11 20 -20 43 -20 51 0 7 -7 19 -15 26 -8 6 -21 36 -30 66 -8 30 -20 54 -25
54 -6 0 -10 8 -10 18 0 9 -13 42 -29 72 -58 110 -131 261 -131 270 0 6 -4 10
-9 10 -5 0 -20 23 -32 50 -12 28 -26 50 -31 50 -4 0 -8 6 -8 13 0 7 -12 21
-27 32 -14 11 -32 26 -39 33 -7 7 -29 19 -48 27 -19 8 -50 25 -70 38 -19 13
-61 34 -93 46 -32 13 -74 31 -93 41 -112 59 -231 114 -305 141 -47 17 -88 35
-91 40 -3 5 -13 9 -22 9 -10 0 -35 9 -57 20 -22 11 -45 20 -53 20 -8 0 -28 7
-45 16 -59 31 -67 34 -85 34 -22 0 -72 22 -72 33 0 4 -15 7 -34 7 -19 0 -54
10 -78 21 -76 38 -102 48 -148 58 -81 18 -220 58 -227 64 -3 4 -14 7 -24 7 -9
0 -36 9 -60 20 -24 11 -57 20 -74 20 -16 0 -52 12 -80 25 -27 14 -59 25 -71
25 -11 0 -36 8 -55 17 -19 9 -59 21 -89 25 -154 21 -189 28 -235 46 -57 22
-121 39 -215 58 -36 6 -94 21 -130 32 -36 11 -83 24 -105 28 -59 13 -52 36 15
51 30 6 73 17 95 23 22 7 81 20 130 30 172 34 259 56 280 71 6 4 62 14 125 24
118 17 209 41 315 80 33 12 79 25 101 29 23 3 54 13 70 21 16 8 37 15 46 15
16 0 35 6 93 31 11 5 56 17 100 28 44 11 118 34 165 51 47 17 106 38 133 47
26 9 47 20 47 25 0 4 12 8 28 8 15 0 45 12 67 25 22 14 52 25 68 25 15 0 27 4
27 8 0 5 25 16 55 26 30 9 57 21 60 26 4 6 14 10 24 10 10 0 24 7 31 15 7 8
34 21 60 29 26 8 56 19 66 24 11 6 42 21 69 35 86 42 120 62 123 70 2 4 8 7
14 7 15 0 141 62 156 78 8 7 30 19 50 28 43 17 136 110 147 145 4 13 14 31 21
40 8 8 45 76 82 150 38 74 77 150 87 169 30 57 35 68 51 118 9 26 21 52 27 57
12 10 26 42 55 125 9 25 19 47 24 48 4 2 8 16 8 30 0 15 11 45 25 67 13 22 25
49 25 61 0 11 4 24 9 30 5 5 16 29 24 54 9 25 28 77 43 115 14 39 39 115 54
170 15 55 35 117 44 139 9 21 16 48 16 60 0 11 7 35 16 51 8 17 20 53 25 80 5
28 18 73 29 100 33 87 59 187 75 295 9 58 23 125 32 150 19 55 38 136 62 260
10 52 25 115 34 140 9 25 17 54 17 66 0 35 21 84 36 84 7 0 16 -16 19 -37z"/>
</g>
</svg>
